<svg xmlns="http://www.w3.org/2000/svg" viewBox="-30 0 512 512"  xmlns:v="https://vecta.io/nano"><path d="M0 0l31.801 448.102L226.199 512l194.398-63.898L452.398 0zm0 0" fill="#ff7816"/><path d="M452.398 0l-31.801 448.102L226.199 512V0zm0 0" fill="#ff4b00"/><path d="M367.5 136H145.199l5.398 75h211.504l-12.902 181.598-123 41.102-123-41.102L99 332h60l1.199 16.5 66 21.898 66-21.898 5.398-77.5H94.5L80.699 76h291zm0 0" fill="#ececf1"/><path d="M362.102 211L349.2 392.598l-123 41.102v-63.301l66-21.898 5.398-77.5H226.2v-60zm9.597-135l-4.199 60H226.199V76zm0 0" fill="#e2e2e7"/></svg>