<svg xmlns="http://www.w3.org/2000/svg" width="41pt" height="41pt" viewBox="0 0 79 78"  fill-rule="evenodd" xmlns:v="https://vecta.io/nano"><path d="M15.447 32.623c.106.08.29.132.106.29-.132.184-.29.342-.395.553-.105.185-.184.237-.342.106l.63-.95zM68.342 60.24c0 .078.026.13.026.21.053-.105.053-.158.08-.21h-.106zm0 .236v-.026.026zm-5.368 10.277l-4.58-25.402c-.078-.025-.183-.077-.368-.13.053.105.08.184.106.263.13-.026.184-.026.236-.052 0-.026 0-.052.027-.08l4.58 25.404zm-4.737-31.12c-.026.078-.026.158-.026.237 0-.08 0-.16.028-.238zm.026.526c-.026 0-.026 0-.052-.028v.026c.028.026.028.026.054 0zm-.052.21v-.185c-.077.026-.156.026-.262.053.132.05.264.078.264.13z" fill="#dd3735"/><path d="M78.71 33.967l-.184-3.083-.684-4.19c-.237-1.133-.63-2.214-1.026-3.294l-1.632-3.768c-1.026-1.95-2.368-3.69-3.605-5.508-.818-1.16-1.87-2.108-2.66-3.294-.447-.685-1.105-1.264-1.763-1.79-1.053-.845-2.158-1.61-3.263-2.347l-2.58-1.634c-.71-.397-1.473-.713-2.21-1.056-.842-.395-1.658-.87-2.605-1.054-.238-.05-.448-.13-.685-.21l-1.79-.632-2.763-.87C50.342 1 49.394.843 48.446.71L45.262.397 43.236.213 40.21.135 38.684.082c-.763.026-1.526.105-2.29.21l-2.183.317-2.604.264-2.473.396c-.29.053-.58.158-.87.21-.63.132-1.288.185-1.92.396l-3.368 1.16-3 1.397c-1 .552-1.948 1.21-2.895 1.844l-2.66 1.923c-.84.66-1.63 1.397-2.394 2.135-.42.42-.763.922-1.158 1.396l-1.947 2.293-1.5 2.03c-.893 1.21-1.656 2.502-2.366 3.794l-.816 1.58-1.184 2.372c-.264.554-.474 1.16-.632 1.766l-1.078 3.9c-.316 1.16-.395 2.372-.42 3.558-.027 1.054.078 2.082.183 3.136.027.264-.13.58.184.79-.105.29-.026.45.13.5-.182.29.08.476-.024.74-.027.052.08.157.13.236 0 .08-.025.185 0 .264.028.237.133.474.133.738 0 .184.157.395.21.58.026.078 0 .21-.053.263-.158.184-.132.342.105.448.133.342.08.5.054.66.052.236-.027.315 0 .368.21.422.29.896.315 1.37 0 .106.053.212.106.343.026 0 0 .5 0 .5.13-.078.237-.104.368-.157l.263.95c.132.21.132.314.08.34.105.474.157.922.34 1.37a8.94 8.94 0 0 0-.13-1.475c.368.132.684.263.895.263l.08-.237c-.158-.157-.29-.394-.448-.552.053.21 0 .29 0 .37-.105-.054-.237-.107-.368-.16l.368-.42c0-.238-.13-.45-.5-.423l.5-.184c.29-.157-.026-.447-.026-.816.026-.447-.237-.895-.316-1.37-.132-.737-.105-1.844-.184-2.582-.158-.132-.29.21-.316.237l.21 1.897c-.157-.527-.263-1.107-.394-1.74-.027.185-.053.264-.053.37-.13.13-.026.29.053.474-.184-.08-.395-.052-.395-.052v.738c-.262-.264-.34-.474-.473-.66l-.13-.63c.05-.133 0-.212 0-.29l-.08-.634c.026-.026-.026-.42-.026-.42l.474.05c-.263-.34-.08-.552.027-.763.053-.106.237-.13.29-.238.21-.395.553-.71.553-1.212 0-.237.08-.5.105-.738l.13-1.344c.054-.58 0-1.16.133-1.713l.764-2.766.71-1.95 1.264-3.03 2.316-4.19 1.58-2.53 1.657-2.425c.843-1.08 1.764-2.082 2.79-2.978l3.184-2.793C19.166 8.41 20.72 7.41 22.376 6.54c1.343-.71 2.737-1.266 4.132-1.793.895-.342 1.868-.5 2.79-.79 1.052-.343 2.105-.5 3.21-.527l2.105-.185 1.948-.183c-.08.105-.106.158-.132.21l-.894 1.265-.737 1.054-1.264 1.688-1.79 2.635-1.973 2.45-2.552 3.426-2.394 3.19-1.948 2.923-2.92 4.322-2.316 3.294c-.053.08-.132.104-.21.157-.21.342-.21.527-.29.685l-.658 1.16c-.132.21-.316.394-.474.605-.026-.316.42-.474.21-.87l-.394.607-.316.63c.105.08.29.133.105.29l-.237.423c.132-.08.21-.158.29-.264 0 .29-.158.526-.29.763-.105.21-.368.37-.552.527.026.027.21.106.237.132.237-.08.316-.21.343-.132.08-.105.158-.184.184-.263.104-.264.262-.474.525-.58.106-.053.184-.132.263-.21l2.316-2.478 3.16-4.11 1.446-1.714c.078.606.026 1.185 0 1.74l-.21 2.95-.027 1.186c0 .105-.08.184-.08.29 0 .263.08.553.08.817l-.265 2.898c-.027.21.078.422.13.607-.13 1.422.16 2.925-.078 4.427.184-.29.237-.474.237-.658.025-.158 0-.316 0-.5v-.264c.025-.475.13-.975.078-1.45-.053-.527-.053-1.027.053-1.528.053-.21-.026-.474.106-.738v.395l-.183 4.505c-.027.132.08.37-.21.343-.238.474.052.817-.21 1.08-.054.053.05.29.077.448-.106.317-.106.317.052.343l.105 1.66c.42-1 .21-2.03.396-3.058l.026 1.29-.052 2.03c0 .132-.027.264-.053.396-.08.37-.105.738-.237 1.08-.105.264-.052.66-.052.975v1.003c.105.448-.027.685.052.948-.08.265-.105.344-.08.423l.08.395c.527-.053.29.343.5.553-.158.212-.105.29-.105.397 0 .237-.025.448-.052.685l-.026 1.792c0 .08.026.157.026.236l-.026.74c.053.078 0 .157-.08.236-.025 0-.104-3.347-.104-3.347h-.395c-.052 1.58.08 3.003-.21 4.48-.316.025-.42.078-.764.078l-2.448.026-2.895.026-1.446.054c-.632 0-1.29-.08-1.92-.08l-2.896.106-2.13.053-1.422.104c-.21.026-.395.105-.658.184-.08 0-.263-.026-.42 0-.265.053-.5.21-.765.264-.395.08-.5.184-.448.58v.263c-.026.052.58-.08.58-.08-.054 0-.08.158-.16.29l.475-.184c.395.185.737.08 1.052.16 1.026.262 2.078.37 3.13.473l2.027.105 2.92.106 2.42-.08 3.395.08.763-.028h1.92l5.133-.13 2.948-.107 3-.08 3.448-.05 2.58-.055 2.946-.157 1.58-.132 1.92-.157 2.87-.133 3.578-.21 3.343-.052 2.948-.106 1.66-.08 1.657-.08 2.842-.183 1.815-.027 2.947-.08c.367 0 .762.054 1.236.08l-.5.422c.105.026.21.08.316.132a.71.71 0 0 1-.42.13c-.054.133-.107.186-.16.45h.474c-.184 0-.342.237-.526.395-.21-.054-.395 0-.5.29.184.104.158.183.132.29-.316.104-.553.21-.42.552l-.37.184c-.13.21-.368.263-.316.553.106.025.21.08.29.104-.132.053-.263.132-.395.184-.473.29-.262.422-.157.554-.08.053-.158.105-.237.132.052.237.13.29.157.29l-.395.316c-.08.237-.185.342-.29.5s-.158.37-.29.527c-.552.607-.947 1.32-1.657 1.793-.264.185-.5.422-.737.66l-1.395 1.37c-.657.553-1.34 1.053-2.052 1.554l-2.604 1.792c-.474.315-1 .552-1.5.842l-1.474.843c-.316.21-.606.5-.948.66l-2.684 1.028-2.158.922c-.605.21-1.237.37-1.868.5-.21.054-.448 0-.685.027l-1.343.238-3.473.422-2.027.29c-.473.026-.973-.026-1.447-.026-.342 0-.71.08-1.053.027l-1.658-.316c-.13-.026-.316-.08-.42-.026-.21.106-.396-.052-.607 0-.13.027-.262-.08-.394-.08-.106-.025-.238.028-.37 0-.29-.078-.552-.183-.87-.157s-.63-.132-.97-.21l-1.396-.317c-.183-.053-.34-.132-.525-.237-.685 0-1.133-.026-1.554-.185-.368-.13-.71-.315-1.105-.262-.104.026-.183-.026-.29-.026-.08-.106-.157-.317-.235-.317-.526.027-.842-.42-1.29-.553-.236-.08-.42-.343-.657-.422-.58-.237-1.052-.737-1.71-.816-.21-.027-.42-.132-.658-.21.08.104.13.183.21.262l-2.184-1.186c-.104-.026-.183-.13-.262-.184l-.71-.474c-.395.08-.553-.08-.66-.132-.71-.5-1.525-.817-2.21-1.37-.29-.238-.63-.396-.84-.686-.37-.448-.817-.764-1.317-1.027-.394-.21-.762-.448-1.13-.685-.185-.132-.37-.29-.37-.58 0-.185-.078-.37-.315-.264-.105-.158-.21-.342-.342-.395-.316-.13-.526-.37-.763-.58s-.42-.5-.71-.605c-.527-.21-.843-.658-1.158-1.027-.738-.87-1.396-1.82-2.08-2.74-.053-.08-.158-.133-.237-.212.105.29.237.527.368.79-.262-.105-.446-.29-.604-.474-.027.027 1.815 3.057 1.815 3.057l.448.712a.81.81 0 0 1-.79-.422c-.236-.42-.5-.684-1.026-.63a4.59 4.59 0 0 1-.13-.58c-.107 0-.185 0-.37-.027l1.027 1.66-.265-.158c.473.5.815 1.133 1.42 1.45.132.605.816.895.974 1.475l-.37-.08-.683-.816a1.32 1.32 0 0 0 .236.474c.316.395.606.79.974 1.133.132.134.316.187.316.424.21.105.29.13.368.13.054.16-.025.397.29.344.21.395.42.395.71.264.343.343.528.37.764.16 0 .13.026.262.026.368.105-.053.08-.132.08-.264l.262.21c.263.37.5.712.868 1.002l1.42 1.265c.922.765 1.95 1.398 2.975 1.977l3.764 2.16c1.552.818 3.21 1.372 4.92 1.767l1.87.42 1.657.528 2.552.5.58.08c.235.053.524-.053.577.027.132.21.237.104.395.078.184-.053.395-.053.605-.053.737.026 1.447.184 2.184.132.16 0 .396-.133.528.13.236-.105.368-.105.473-.13.028.236 0 .236-.05.262s-.133.053-.238.132c.947.184 1.842.21 2.63 0 1.37.105 2.554-.053 3.686-.448.105.132.184.316.342.053.052-.08.184-.107.29-.133.236-.053.526-.158.736-.08.238.08.317-.13.5-.13.317 0 .606-.027.896-.08.158-.026.316-.105.5-.158-.21-.107-.42-.133-.58-.133l.896-.42c-.053.078-.106.183-.21.183h.367c-.08 0-.185.237-.316.395l2.657-.66c-.29-.552.315-.367.526-.684l-.79.21 2.71-1.237c-.13.158-.29.237-.525.37l.342.05c.42.133.316-.262.447-.5.5 0 .71-.078.947-.158l.79-.263c.42-.184.815-.42 1.236-.63.08-.028.21 0 .316 0 .29-.186.394-.344.473-.318.37.053.63-.08.736-.42l.447-.318 1.71-.948c.21 0 .316 0 .368-.027.344-.16.66-.342.975-.527-.08-.026-.263-.13-.263-.13.262-.054.34-.08.5-.133.63-.74 1.5-1.24 2.157-1.82.29-.026.29-.105.29-.157.104-.132.21-.29.34-.396l1.737-1.528 2.184-2.374 1.79-2.292c.737-1.133 1.368-2.293 2.026-3.48l1.37-2.528c.05-.08.157-.185.236-.185l2.106-.21c.158-.026.342-.13.5-.21-.08-.132-.132-.29-.21-.422-.106-.16-.264-.29-.37-.45-.104-.13-.183-.29-.262-.447l-.237-.37-.45-.894c-.026-.08-.08-.21-.052-.29.474-1.027.658-2.134 1.105-3.162.447-1.054.58-2.24.79-3.373l.42-3.24.21-2.266c.16-1.212.106-2.346.08-3.48l-.13-3.03zM12.685 66.405l-.526-.658.08-.08.866.976c-.158-.08-.342-.132-.42-.238zm.42.238c.08-.027.16-.027.238-.053.08.132.132.29.21.448-.368-.027-.552-.185-.447-.395zm27.37 10.883v-.08l1.473-.157v.077a14.16 14.16 0 0 1-1.473.158zm6.63-.685c-.367.08-.762.133-1.13.186-.132.026-.29.158-.342-.08-.053.027-.106.027-.158.054.13.394.447.078.71.236l-1.684.21v-.052l.5-.08v-.078l-.79-.053c-.077 0-.183.106-.262.132-.105.026-.21.053-.342.053l-1.316.052c-.027 0-.08-.026-.106-.026v-.08l5.263-.71c.027.052.027.105.053.157-.158 0-.263.055-.395.08zm.396-.262l1.738-.21c-1.21.342-1.605.394-1.737.21zM24.58 23.374l2.552-3.505.736-1.056c.08-.106.185-.158.316-.264l-.026-.05c.105-.133.21-.24.263-.344.134-.21.213-.448.318-.685.026-.05.105-.103.105-.103.37.184.37-.21.5-.343l.684-.817c.158-.21.316-.395.448-.632.026-.08-.053-.21-.08-.317h-.078c.08-.052.158-.13.237-.184.026 0 .026 0 .052-.026l.474-.686c.315-.42.657-.842 1.025-1.21l-.158.368c.027 0 .027.027.053.027l.974-1.24c-.027-.025-.053-.052-.08-.052l-.368.396c-.026-.027-.052-.053-.08-.053l.79-1.08c.053.08.106.184.21.395l.29-.632c-.078.08-.183.158-.262.238l-.08-.08.474-.71 1.5-2.162c.185-.263.42-.474.58-.738.5-1 1.29-1.792 1.894-2.714.132-.184.316-.342.474-.5.13-.16.237-.106.342.026l2.13 2.714 1.554 1.976 1.79 2.53 2.026 2.95 2.947 4.428 2.184 3.215h-1.344l-3.736-.078-5.078.396c-2.132.185-4.29.21-6.42.21-.765 0-1.528.107-2.29.16l-2.738.13-3.21.107h-1.895zm30.183 12.12v.238c-.026 0-.052.027-.105.027l-.342-1.135c-.263-.765-.553-1.53-1.027-2.214l-1.528-2.265c-.13-.185-.316-.343-.474-.5-.553-.607-1.106-1.24-1.816-1.687-1.053-.66-2.132-1.213-3.29-1.688-.316-.13-.605-.29-.92-.474h.63l4.5-.08 2.895-.078c.236 0 .368.08.5.29l.736 1.186c.027.052.08.13.08.21l.026 1.766.104 1.792-.026 1.87.053 2.74zM26.447 26.67l3.632-.185 2.866-.132c.395-.025.764-.05 1.158 0-.42.212-.842.423-1.21.686-.474.316-.92.737-1.395 1.08s-.896.764-1.29 1.212c-.5.605-1.053 1.132-1.58 1.712l-1.105 1.265c-.447.58-.842 1.21-1.263 1.87l.184-7.51zm17.185 25.35l-2.58.553c-.736.106-1.5.08-2.263.08a25.42 25.42 0 0 1-2.028-.08c-.763-.078-1.526-.157-2.263-.5l-1.92-.87c-.634-.316-1.265-.684-1.74-1.264-.34-.423-.815-.765-1.236-1.134.08.316.263.58.553.764-.132.158-.316.08-.58-.343-.078.053-.157.08-.21.106l.237-.527-.342-.66-.605-1.053c-.053-.08-.053-.158-.105-.237l-.37-.475c-.21-.315-.394-.657-.657-.974 0 .08.027.158.027.264-.027 0-.053.026-.053.026l-.554-1.344c-.026 0-.026 0-.052.026l.473 1.74c-.026 0-.052.025-.08.025-.077-.104-.156-.21-.21-.34-.052-.212-.21-.212-.34-.133a.36.36 0 0 0-.106.316l.606 1.344c.052.158.105.29.184.448.027.053.106.105.106.184.106.21.185.42.316.606l.737.948.656.975c.026.053.105.053.13.08.133.395.58.684.896.526.08.606.737.817 1 1.397l-.763-.343c-.027.026-.027.052-.054.105l.92.5.765.5c.316.29.685.45 1.13.554-.024-.08-.05-.107-.05-.107l2.078 1-8.685.16-.026-1.476c0-.21.052-.395.025-.606l-.237-3.61c-.157-1.264-.157-2.503-.13-3.77.025-.683-.027-1.394-.054-2.08l.028-2.74c0-.132.053-.237.106-.37h.08c.025.054 0 .133.05.16.08.08.212.21.265.184.157-.106.394-.21.447-.37.13-.315.184-.658.184-.974 0-.236.106-.394.21-.553.054-.08.08-.158.133-.263l-.342-.237c.106-.29.08-.633.475-.79.052-.027.052-.16.08-.238l.078-.66c.052.08.08.105.13.157.028-.052.054-.08.054-.08 0-.104-.026-.315 0-.315.316-.053.184-.395.342-.553.025-.028-.027-.107-.027-.16s0-.13.026-.13c.367-.08.315-.475.552-.66.08-.053.105-.13.21-.263.21.368-.158.553-.184.816.446-.263.578-.895.315-1.08a1.56 1.56 0 0 0 .29-.29l.868-.922c.185-.236.29-.526.474-.763.106-.132.316-.237.474-.317.474-.262.92-.552 1.21-1 .053-.053.132-.105.21-.158s.238-.053.264-.132c.027-.052-.052-.184-.105-.263.104-.053.21-.158.42-.264-.08.158-.105.264-.158.37l.13.13c.238-.184.606-.394.843-.552 0-.025-.132-.13-.132-.13l-.63.316c.05-.08.05-.132.08-.158l1.13-.66 2.763-1.237c.158-.08.37-.026.553-.026.078 0 .13 0 .21-.026l1.263-.37c.183-.052.393-.078.58-.078l2.366.078c.342.026.658.105.974.21a9.88 9.88 0 0 1 1.184.5c.447.24.868.502 1.29.792l2.236 1.502c.737.448 1.316 1.054 1.79 1.74.58.816 1.237 1.554 1.5 2.555l.394 1.74c.08.316.264.632.185 1l-.343 2.004c-.052.265-.105.53-.078.79.05.82-.265 1.53-.58 2.268-.106.237-.264.475-.395.738a.8.8 0 0 0 .21.106l.237-.474c.027 0 .027 0 .053.027l-.37 1.133-1.025 2.45c-.21.448-.58.817-.842 1.24l-.736 1.106c-.237.29-.473.58-.79.79l-2.21 1.476c-.473.29-1.026.448-1.552.58zm-14.027-1.4l-.026.027c-.055-.026-.134-.052-.186-.105l-.632-.95c-.052-.078-.08-.157-.052-.262l.895 1.29zm16.37 3.61c1.183-.5 2.157-1.21 3.05-2.028.133-.132.264-.263.422-.37 1.106-.684 1.92-1.633 2.658-2.687.842-1.212 1.395-2.582 2.08-3.873l.157-.29c-.053 3.004.29 5.955.684 8.933l-9.052.316zm26.683-.79c-.026.053-.08.106-.105.16-.027-.054-.027-.133-.053-.24-.158.423-.5.212-.737.212l-4.29.027-4.13.024c-.448 0-.922.105-1.37.132l-3.236.105c-.08 0-.158-.13-.29-.236a1.81 1.81 0 0 1-.158.237c-.028-.052-.08-.104-.133-.183-.026.08-.053.158-.08.21H58c-.053-.368-.158-.71-.158-1.08l.105-2.372c.027-.368 0-.71 0-1.054l.29.21c.052-.103.105-.182.158-.26 0 0-.053-.028-.106-.08.05-.027.104-.08.104-.106.026-.08.08-.158.08-.21 0-.185-.054-.343-.08-.5.026 0 .052 0 .08-.028l.157.79h.08c-.106-.183.236-.342-.053-.552-.026-.027.026-.185.026-.264-.08-.157-.13-.315-.21-.526.026-.026.105-.053.184-.08-.105-.052-.184-.104-.263-.13.263-.238.263-.37.026-.633.054-.025.106-.025.106-.05 0-.238 0-.475-.052-.71-.053-.266.08-.58-.316-.74.026.08.053.132.105.21 0 0-.08.027-.158.08-.342-.317-.13-.74-.21-1.213.184.053.316.106.447.16-.053-.186-.184-.397-.263-.634h-.107v-1.74c0 .027.184.027.29.054 0-.027.025-.053.025-.08-.08-.105-.185-.21-.29-.342l.053-.053c-.21-.262-.105-.63-.105-.71V39.4c.264.264-.13.606.264.764v-.263h-.027l-.052-1.186h-.052c-.027.054-.027.08-.054.133h-.052l.158-6.298c.263.342.552.66.736 1 .606 1.108 1.395 2.057 2.132 3.058l1.79 2.714 2.105 3.24 1.63 2.426 1.554 2.082 1.367 1.818 1.58 2.187.84 1.106c.16.21.396.37.554.5-.025 0-.052 0-.104-.026l.184.237c.29.158.316.316.158.554zM74 46.854v-.185c0 .052.026.13 0 .184zm.895-11.62c-.027 0-.184-.16-.21-.186-.027.08 0 .158-.053.264-.027-.078-.21-.052-.21-.13-.027.368.157.737.13 1.106.08-.053.395-.08.474-.158.027.026.08.052.106.052-.527.396-.395.79-.158 1.24.052.104.21.315.052.526-.052.053.027.21.053.343h.077v.05l-.237.08c-.052-.08-.367-.236-.367-.37v1.346c.263.08.263.448.368.633.055-.08.08-.133.107-.21l.027.024c-.027.158-.053.316-.106.475l-.13.684c0 .026.05.08.05.105-.288.66-.13 1.396-.235 2.08-.08.5 0 1.03-.053 1.556-.054.448-.16.922-.264 1.37-.027.08-.08.105-.21.158.052-.316.026-.527-.027-.817-.028 0-.37-.184-.397-.184 0 .37.21.87.29 1.29-.08-.026-.395-.21-.42-.21-.054.316-.054.738-.08 1.08-.027.264-.263.5-.29.79 0 .16.184.264.158.528h.21c0-.526.238-1 .238-1.554h.078c.027.053.106.106.08.132-.053.29-.16.606-.132.896 0 .158.13.316.08.5-.054.16-.08.317-.107.554-.027-.132-.053-.184-.053-.263-.026 0-.263-.027-.29-.027-.026.158.185.316.158.448-.026.026-.052.026-.105.053l-.868-1.266-2.054-3.03c-.185-.264-.343-.527-.475-.79-.815-1.398-1.71-2.742-2.71-4.033-.762-.974-1.37-2.03-2.08-3.055l-1.972-2.9c-.237-.315-.526-.605-.737-.948l-1.972-3.267-1.816-2.636-.632-.923c-.026-.05-.052-.103-.052-.182l-.132-1.713.053-1.608v-.474c0-.132.025-.237.025-.37.025-.025.052-.078.078-.104-.763 0-1.553-.028-2.316 0-.5.025-.763-.186-1.105-.555-1-1.133-1.737-2.424-2.605-3.636l-2.5-3.427-2.053-2.74-2.29-3.162-2.895-3.794-1.45-1.74.975.133 1.264.08 2.84.26 2.396.396c1.738.29 3.448.765 5.106 1.318.974.316 1.92.738 2.87 1.133 2.13.87 4.157 1.924 6.157 3.03.63.343 1 .896 1.472 1.397l2.027 2.16 2.21 2.662 2 2.372c.21.237.37.527.552.79l1.263 1.924c.262.502.42 1.082.604 1.635l.79 2.424.472 1.87c.106.423.08.87.21 1.29.16.556 0 1.16.16 1.715l.078.185c.105.104.184.21.026.368-.025.026-.025.13 0 .21.054-.052.08-.105.133-.184 0 .053.025.08.025.105 0 .104-.027.21 0 .315 0 .052.052.13.078.184.053-.054.105-.08.21-.16.237.897.264 1.793.264 2.715 0 .87.157 1.74-.21 2.583.078-.29-.106-.555-.027-.818z" fill="#dd3a0a"/><g fill="#dd3735"><path d="M58.08 45.482c.025 0 .052.027.052.027l-.027-.03c0-.025 0-.025-.026 0zm4.157 26.036c-.29.21-.58.395-.948.474-.028-.026-.028-.053-.054-.08l.895-.553c.027.05.08.104.106.157zM12.895 35.81l.894-1.105c.025.026.235.08.262.105l-.974 1.265c-.054-.053-.133-.237-.185-.264zM5.42 48.725l-.63-1.37a.91.91 0 0 1 .236-.106c.29.42.42.92.632 1.37l-.237.105zm6.712-12.65l-.474.74c-.026-.028-.316.104-.342.078.158-.237.552-.66.71-.896.027.026.053.053.106.08zM59.422 72.6c.025 0 .025-.026.052-.026.184.026.394.052.605.052-.344.237-.555.21-.66-.026zm-47.24-35.418c.028-.08.08-.158.133-.237.052 0 .13-.027.13-.027.107-.184.107-.316.212-.474-.026-.026-.053-.026-.08-.053l-.473.345c.053.052.053.08.053.132-.21-.027-.29.08-.395.368-.026.08-.158.106-.29.21-.026.054-.052.186-.105.317l.027.028c-.053.053-.132.08-.132.08-.158.157-.342.29-.5.447-.026.08-.052.158-.052.237l.737-.738.027.027.29-.474c.025.026.025.052.052.08l-.237.657c-.055.026-.134.08-.134.053-.105.08-.184.184-.29.263l-.473.316-.816.685-.58.896c.317-.08.396.053.37.317.368.052.395-.237.5-.448.026-.054.053-.16.105-.186.237-.21.5-.394.763-.605.053-.053.053-.16.053-.238 0-.026-.133-.026-.212-.053l.816-1c.132-.08.263-.186.263-.265-.026-.29.158-.368.37-.474-.106-.08-.133-.157-.133-.183z"/><path d="M12.71 36.892l-.315.527-.158-.08c-.105.605-.474 1.132-.842 1.237.105.053.21.106.29.08s.13-.16.183-.238l.71-1.028.238-.396-.105-.105zM3.948 48.46c.132 0 .264.026.42.026 0-.105.133-.08.133-.184h.08c0 .132.026.237.026.37h-.552c-.027-.027-.132-.186-.106-.212zm-.21-1.212c-.08-.08-.21-.158-.21-.237-.027-.104.052-.235.13-.367l.132.527c-.027.025-.053.052-.053.078zm.658-1.687l.316.82c-.026 0-.184.08-.21.105l-.342-.817c.026-.026.184-.106.237-.106zm58.58 25.194c.13-.052.288-.08.5-.13l-.58.473c-.027-.026-.053-.053-.08-.053l.16-.29zM30.63 15.074l.447-.29.052.052-.475.685-.053-.42c-.026 0 0 0 .027-.026zm7.71 13.333l.763-.343c-.026.158-.026.264-.026.37-.08-.027-.185-.054-.264-.054-.158.027-.448.238-.58.264-.025 0 .106-.21.106-.237zm19.74 22.346c.052.263.552.395.052.658.08.055.157.08.236.134 0 .027-.026.08-.052.106-.053.025-.158.078-.21.05-.027 0-.08-.104-.08-.157 0-.237.027-.474.053-.79z"/></g></svg>
